<?xml version="1.0" encoding="UTF-8"?>
<svg id="Lag_1" data-name="Lag 1" xmlns="http://www.w3.org/2000/svg" viewBox="0 0 169.39 167.56">
  <defs>
    <style>
      .cls-1 {
        fill: #00239a;
      }

      .cls-2 {
        stroke-width: 2px;
      }

      .cls-2, .cls-3 {
        fill: none;
        stroke: #00239a;
        stroke-miterlimit: 10;
      }

      .cls-3 {
        stroke-width: 1.6px;
      }
    </style>
  </defs>
  <path class="cls-2" d="m166.12,165.03s-75.81-.22-90.71,0c0-48.32,17.15-13.89,76.13-15.43,1.84-59.48-31.13-75.28,14.58-75.28.16,22.96,0,90.71,0,90.71Z"/>
  <path class="cls-2" d="m143.64,78.77l-12.41,14.04v37.32s-37.64,0-37.64,0c0,0-6.61,5-13.53,11.13"/>
  <rect class="cls-3" x="3.22" y="3.29" width="90.71" height="90.71"/>
  <path class="cls-3" d="m93.93,38.51h35.95v90.71H39.17v-35.22h54.75v-55.49Z"/>
  <path class="cls-1" d="m151.07,149.19c-21.43.36-38.45-4.43-49.94-7.67-6.51-1.83-13.17-3.37-17.21-3.29,3.12-3.1,7.17-6.97,8.23-8.01h38.77s-.03-38.2-.03-38.2l10.03-9.35c-.09,3.86,1.12,9.82,2.82,16.05,3.11,11.47,7.83,28.5,7.34,50.46Z"/>
</svg>