<?xml version="1.0" encoding="UTF-8"?>
<svg id="Lag_1" data-name="Lag 1" xmlns="http://www.w3.org/2000/svg" viewBox="0 0 349.84 190.5">
  <defs>
    <style>
      .cls-1 {
        fill: #125a16;
        opacity: .22;
      }

      .cls-1, .cls-2, .cls-3, .cls-4, .cls-5, .cls-6, .cls-7, .cls-8 {
        stroke-miterlimit: 10;
      }

      .cls-1, .cls-2, .cls-4, .cls-5, .cls-6, .cls-8 {
        stroke-width: 2px;
      }

      .cls-1, .cls-4 {
        stroke: #125a16;
      }

      .cls-2 {
        fill: #002bbf;
        opacity: .18;
      }

      .cls-2, .cls-8 {
        stroke: #002bbf;
      }

      .cls-9, .cls-4, .cls-5, .cls-7 {
        fill: #fff;
      }

      .cls-3 {
        opacity: .32;
      }

      .cls-3, .cls-5, .cls-6, .cls-7 {
        stroke: #9c252c;
      }

      .cls-3, .cls-6 {
        fill: #9c252c;
      }

      .cls-6 {
        opacity: .38;
      }

      .cls-8 {
        fill: none;
      }
    </style>
  </defs>
  <path class="cls-3" d="m26.98,99.89l58.48-.4v-8.86s32.59,0,32.59,0c6.98-28.31,19.68-56.69,26.66-85h-5.71c-46.75-.67-93.1,24.99-112.02,94.26"/>
  <path class="cls-7" d="m45.91,76C59.79,28.06,97.29,1.13,145.19,1.13"/>
  <polygon class="cls-2" points="130.68 143.05 73.93 143.05 73.93 90.96 85.33 90.96 85.33 136.32 130.68 136.32 130.68 143.05"/>
  <path class="cls-5" d="m130.5,90.98l-90.08.59c6.49-18.26,22.73-74.51,56.73-56.64C95.99-2.61,159.26,1.05,161.05,1.13c-10.39,29.25-20.67,60.06-30.54,89.85Z"/>
  <polyline class="cls-1" points="130.68 98.79 209.7 98.79 209.7 189.5 118.99 189.5 118.99 136.32 130.68 136.32 130.68 98.79"/>
  <rect class="cls-9" x="85.33" y="46.21" width="90.71" height="90.71"/>
  <rect class="cls-8" x="85.33" y="45.61" width="90.71" height="90.71"/>
  <rect class="cls-4" x="130.68" y="90.96" width="90.71" height="90.71"/>
  <path d="m102.56,78.78c2.36,1.4,4.78,2.32,7.43,2.36,1.1.02,2.24-.08,3.31-.34,1.97-.48,3.37-1.69,3.76-3.75.42-2.22-.15-4.18-2.15-5.42-1.31-.82-2.78-1.37-4.16-2.09-1.83-.96-3.81-1.74-5.42-2.98-4.54-3.52-4.51-10.17-.1-13.85,3.84-3.2,11.93-3.55,16.11-.64-.48,1.4-.96,2.83-1.47,4.36-2.26-1.19-4.56-1.91-7.05-1.74-.83.05-1.68.18-2.45.46-3.43,1.25-4.18,5.45-1.27,7.65,1.38,1.04,3.08,1.65,4.63,2.45,1.63.84,3.38,1.5,4.86,2.55,6.01,4.27,5.3,13.31-1.35,16.48-5.09,2.42-10.25,1.86-15.28-.45-.6-.28-.79-.63-.54-1.32.44-1.18.75-2.41,1.15-3.73Z"/>
  <path d="m153.38,119.02c1.88,0,3.59-.04,5.3.04.28.01.69.48.77.81,2.02,8,4,16.01,5.99,24.02.11.46.22.93.39,1.63.18-.43.3-.65.37-.88,2.3-8.22,4.61-16.43,6.87-24.65.21-.78.56-1.02,1.32-.99,1.16.05,2.32.07,3.48,0,.91-.06,1.23.31,1.44,1.15,2.01,8.21,4.06,16.41,6.1,24.61.03.11.11.2.3.54.2-.77.34-1.34.5-1.91,2.14-7.8,4.29-15.61,6.41-23.42.18-.67.47-.99,1.22-.96,1.55.06,3.1.02,4.86.02-3.54,11.65-7.02,23.11-10.5,34.57h-5.67c-2.21-8.62-4.43-17.28-6.62-25.83-1.71,5.87-3.44,11.84-5.18,17.81-.68,2.33-1.4,4.66-2.03,7.01-.21.78-.51,1.19-1.38,1.06-.47-.07-.96-.01-1.44-.01q-3.15,0-3.96-2.98c-2.76-10.16-5.51-20.32-8.27-30.47-.08-.3-.15-.61-.27-1.15Z"/>
  <path d="m286.34,84.05h13.47v4.55h-21.58c-.2-1.86-.2-3.42,1.45-4.91,3.3-2.95,6.37-6.16,9.41-9.38,2.09-2.21,3.9-4.66,4.47-7.78.87-4.79-2.34-8.09-7.11-7.08-1.63.35-3.13,1.3-4.67,2.02-.38.18-.7.49-1.14.8-.55-1.2-1.09-2.3-1.53-3.44-.1-.25.08-.77.31-.94,4.21-3.19,8.87-4.17,13.87-2.33,4.34,1.59,6.56,6.4,5.57,11.37-.69,3.44-2.5,6.3-4.79,8.84-2.24,2.49-4.65,4.83-6.99,7.23-.27.28-.6.5-.9.75.05.1.11.21.16.31Z"/>
  <path class="cls-6" d="m65.26,41.62c1.64-.84,1.76-.98,4.63-1.41,6.13-.93,10.91,1.94,12.86,3.17.98-4.7,1.82-6.48,2.79-11.17-1.71-.24-7.42.38-9.32,1.36-6.66,3.48-8.85,5.89-10.97,8.05Z"/>
  <g>
    <path d="m159.98,76.62h-8.22l-1.54,4.59h-4.87l7.96-22.31h5.27l7.9,22.31h-5.06l-1.44-4.59Zm-1.3-3.85l-2.79-8.78-2.88,8.78h5.66Z"/>
    <path d="m208.37,62.84h-11.19v5.13h9.79v3.88h-9.79v9.35h-4.63v-22.28h15.82v3.92Z"/>
    <path d="m251.41,71.46h-10.84v5.74h12.35v4.01h-16.91v-22.31h16.36v3.95h-11.81v4.74h10.84v3.88Z"/>
  </g>
  <g>
    <path d="m244.67,149.37c-3.19,0-5.63-.87-7.31-2.6-2.26-2.13-3.39-5.2-3.39-9.2s1.13-7.16,3.39-9.2c1.69-1.74,4.12-2.6,7.31-2.6s5.62.87,7.31,2.6c2.25,2.05,3.38,5.12,3.38,9.2s-1.13,7.07-3.38,9.2c-1.69,1.74-4.12,2.6-7.31,2.6Zm4.4-5.99c1.08-1.36,1.62-3.3,1.62-5.81s-.54-4.44-1.63-5.81c-1.08-1.37-2.55-2.05-4.4-2.05s-3.32.68-4.42,2.04c-1.1,1.36-1.65,3.3-1.65,5.81s.55,4.45,1.65,5.81c1.1,1.36,2.57,2.04,4.42,2.04s3.31-.68,4.4-2.04Z"/>
    <path d="m292.77,140h-4.81v8.75h-4.56v-22.31h10.94c1.56.03,2.77.22,3.61.58.84.35,1.56.87,2.14,1.56.48.57.87,1.19,1.15,1.88.28.69.42,1.47.42,2.35,0,1.06-.27,2.1-.8,3.13-.54,1.02-1.42,1.75-2.65,2.17,1.03.41,1.76,1,2.19,1.76.43.76.64,1.92.64,3.49v1.5c0,1.02.04,1.71.12,2.07.12.58.4,1,.85,1.27v.56h-5.13c-.14-.49-.24-.89-.3-1.2-.12-.63-.19-1.27-.2-1.92l-.03-2.07c-.02-1.42-.28-2.37-.78-2.85-.5-.47-1.44-.71-2.81-.71Zm2.83-4.06c.93-.42,1.39-1.26,1.39-2.51,0-1.35-.45-2.26-1.35-2.72-.5-.26-1.26-.39-2.27-.39h-5.42v5.99h5.28c1.05,0,1.84-.12,2.36-.36Z"/>
    <path d="m349.84,148.75h-5.99l-6.89-9.75-2.22,2.29v7.46h-4.59v-22.31h4.59v9.19l8.61-9.19h6.02l-9.14,9.19,9.61,13.12Z"/>
  </g>
</svg>